<?xml version="1.0" encoding="utf-8"?>
<!-- Generator: Adobe Illustrator 24.0.1, SVG Export Plug-In . SVG Version: 6.00 Build 0)  -->
<svg version="1.1" id="Layer_1" xmlns="http://www.w3.org/2000/svg" xmlns:xlink="http://www.w3.org/1999/xlink" x="0px" y="0px"
	 viewBox="0 0 500 500" style="enable-background:new 0 0 500 500;" xml:space="preserve">
<style type="text/css">
	.st0{fill:#093F63;}
	.st1{fill:none;}
	.st2{font-family:'Gilroy-ExtraBold';}
	.st3{font-size:74px;}
</style>
<path id="favorite-3_1_" class="st0" d="M394.96,207.61c39.47-23.01,27.95-87.69-21.51-87.69c-34.06,0-68.89,40.71-115.51,87.69
	c46.63,46.98,81.45,87.69,115.51,87.69C423.08,295.3,434.14,230.45,394.96,207.61z"/>
<path id="favorite-3_2_" class="st0" d="M250.31,353.26c23.01,39.47,87.69,27.95,87.69-21.51c0-34.06-40.71-68.89-87.69-115.51
	c-46.98,46.63-87.69,81.45-87.69,115.51C162.63,381.37,227.48,392.44,250.31,353.26z"/>
<path id="favorite-3_4_" class="st0" d="M105.36,208.31c-39.47,23.01-27.95,87.69,21.51,87.69c34.06,0,68.89-40.71,115.51-87.69
	c-46.63-46.98-81.45-87.69-115.51-87.69C77.25,120.62,66.18,185.47,105.36,208.31z"/>
<path id="favorite-3_3_" class="st0" d="M250.01,62.66C227,23.19,162.32,34.71,162.32,84.17c0,34.06,40.71,68.89,87.69,115.51
	c46.98-46.63,87.69-81.45,87.69-115.51C337.69,34.54,272.84,23.48,250.01,62.66z"/>
<rect x="113.83" y="403.36" class="st1" width="272.17" height="56.64"/>
<text transform="matrix(1 0 0 1 114.4614 455.1621)" class="st2 st3">ORDOLI</text>
</svg>
